<svg enable-background="new 0 0 511.996 511.996" height="512" viewBox="0 0 511.996 511.996" width="512" xmlns="http://www.w3.org/2000/svg"><ellipse cx="255.998" cy="77.767" fill="#f7ef87" rx="59.416" ry="59.416" transform="matrix(.916 -.401 .401 .916 -9.688 109.288)"/><path d="m226.909 25.964c-18.096 10.184-30.326 29.56-30.326 51.803 0 32.814 26.601 59.415 59.416 59.415 14.837 0 28.392-5.451 38.804-14.443-54.519-8.855-81.959-53.483-67.894-96.775z" fill="#efd176"/><ellipse cx="255.998" cy="258.336" fill="#e26e7e" rx="206.753" ry="158.427"/><path d="m273.263 87.628h-34.529c-9.956 0-18.027 8.071-18.027 18.027v124.612c0 9.956 8.071 18.027 18.027 18.027h34.529c9.956 0 18.027-8.071 18.027-18.027v-124.613c0-9.956-8.071-18.026-18.027-18.026z" fill="#efd176"/><path d="m470.795 416.932 33.128-185.951c5.406-30.344-28.444-52.177-53.858-34.738l-58.877 40.401c-9.54 6.546-22.264 5.978-31.182-1.392l-81.877-67.663c-12.844-10.615-31.416-10.615-44.261 0l-81.877 67.663c-8.919 7.37-21.642 7.939-31.182 1.392l-58.877-40.401c-25.414-17.439-59.264 4.394-53.858 34.738l33.128 185.951z" fill="#f7ef87"/><path d="m189.423 204.317-37.433 30.934c-8.919 7.37-21.642 7.939-31.182 1.392l-58.877-40.401c-25.414-17.439-59.264 4.394-53.858 34.738l33.128 185.951h181.5c-30.593-46.389-53.378-139.43-33.278-212.614z" fill="#efd176"/><ellipse cx="415.044" cy="316.286" fill="#89d47f" rx="26.586" ry="36.999"/><path d="m405.021 282.016c-9.714 5.508-16.563 18.772-16.563 34.27 0 20.434 11.903 36.999 26.586 36.999 6.307 0 12.098-3.063 16.656-8.17-23.853-2.747-36.769-46.327-26.679-63.099z" fill="#5ec783"/><ellipse cx="255.998" cy="294.819" fill="#a3defe" rx="35.225" ry="49.021"/><path d="m242.718 249.413c-12.87 7.298-21.945 24.872-21.945 45.406 0 27.074 15.771 49.021 35.225 49.021 8.357 0 16.029-4.058 22.069-10.825-31.604-3.639-48.717-61.38-35.349-83.602z" fill="#7acefa"/><path d="m255.998 493.645c-77.177 0-147.784-4.982-209.859-14.806-23.448-3.711-39.448-25.728-35.737-49.176s25.727-39.447 49.176-35.737c57.644 9.124 123.73 13.75 196.42 13.75s138.776-4.626 196.42-13.75c23.444-3.71 45.465 12.289 49.176 35.737s-12.289 45.465-35.737 49.176c-62.075 9.824-132.682 14.806-209.859 14.806z" fill="#e8899e"/><path d="m46.139 478.839c59.072 9.349 125.883 14.303 198.717 14.761-16.195-22.879-17.131-62.311-8.521-86.053-64.968-.764-124.36-5.328-176.758-13.621-23.449-3.71-45.465 12.289-49.176 35.737-3.71 23.448 12.29 45.464 35.738 49.176z" fill="#e26e7e"/><ellipse cx="96.952" cy="316.286" fill="#89d47f" rx="26.586" ry="36.999"/><path d="m86.929 282.016c-9.714 5.508-16.563 18.772-16.563 34.27 0 20.434 11.903 36.999 26.586 36.999 6.307 0 12.098-3.063 16.656-8.17-23.853-2.747-36.769-46.327-26.679-63.099z" fill="#5ec783"/><g fill="#fff"><path d="m88.165 451.927c-1.919 0-3.839-.732-5.303-2.197-2.929-2.929-2.929-7.678 0-10.606l7.642-7.643c2.929-2.929 7.678-2.929 10.607 0s2.929 7.678 0 10.606l-7.643 7.643c-1.464 1.465-3.383 2.197-5.303 2.197z"/><path d="m208.549 461.637c-1.919 0-3.839-.733-5.303-2.197l-7.643-7.643c-2.929-2.929-2.929-7.678 0-10.606 2.929-2.929 7.678-2.929 10.606 0l7.643 7.642c2.929 2.929 2.929 7.678 0 10.607-1.464 1.465-3.383 2.197-5.303 2.197z"/><path d="m323.291 459.696c-1.919 0-3.839-.732-5.303-2.197-2.929-2.929-2.929-7.678 0-10.606l7.643-7.643c2.929-2.929 7.678-2.929 10.607 0s2.929 7.678 0 10.606l-7.643 7.643c-1.465 1.464-3.384 2.197-5.304 2.197z"/><path d="m431.701 450.996c-1.919 0-3.839-.733-5.303-2.197l-7.643-7.643c-2.929-2.929-2.929-7.678 0-10.606 2.929-2.929 7.678-2.929 10.607 0l7.643 7.642c2.929 2.929 2.929 7.678 0 10.607-1.466 1.464-3.385 2.197-5.304 2.197z"/></g><path d="m492.617 189.391c-13.225-8.531-29.211-9.078-42.743-1.775-13.914-22.863-34.557-43.15-60.176-58.995-20.983-12.978-44.987-22.763-70.514-28.859 2.451-7.051 3.729-14.514 3.729-21.995 0-36.898-30.018-66.916-66.915-66.916s-66.916 30.018-66.916 66.916c0 7.483 1.279 14.948 3.731 22-11.043 2.631-21.812 5.93-32.193 9.926-3.866 1.488-5.793 5.829-4.305 9.694 1.484 3.854 5.817 5.797 9.694 4.305 14.985-5.769 30.828-10.037 47.198-12.757v63.998l-65.994 54.537c-6.304 5.21-15.418 5.618-22.161.989l-50.402-34.586c13.394-22.223 33.813-41.792 59.465-56.863 3.571-2.098 4.766-6.694 2.667-10.266-2.098-3.571-6.694-4.764-10.266-2.667-27.61 16.222-49.706 37.39-64.393 61.538-13.532-7.304-29.518-6.756-42.743 1.775-14.569 9.397-21.73 25.838-18.69 42.906l28.427 159.562c-13.476 7.207-23.553 20.409-26.121 36.632-4.352 27.495 14.477 53.404 41.972 57.756 62.464 9.886 133.466 14.898 211.031 14.898 72.181 0 138.816-4.351 198.055-12.933 4.099-.594 6.941-4.398 6.347-8.498s-4.4-6.94-8.498-6.347c-58.528 8.478-124.44 12.777-195.904 12.777-76.783 0-146.995-4.951-208.687-14.714-19.326-3.059-32.56-21.27-29.501-40.596 3.059-19.325 21.269-32.562 40.596-29.502 58.03 9.185 124.51 13.842 197.592 13.842s139.562-4.657 197.592-13.842c19.199-3.042 37.506 9.978 40.596 29.502 1.935 12.227-2.516 24.359-11.906 32.454-3.137 2.705-3.488 7.44-.784 10.578 2.706 3.138 7.441 3.488 10.578.784 13.353-11.511 19.68-28.767 16.927-46.16-2.501-15.809-12.114-29.156-26.117-36.657l28.422-159.537c3.041-17.066-4.121-33.507-18.69-42.904zm-110.809-48.013c23.788 14.713 42.851 33.461 55.537 54.497l-50.401 34.585c-6.743 4.627-15.857 4.221-22.161-.989l-65.994-54.537v-63.995c30.287 5.045 58.832 15.479 83.019 30.439zm-174.147-44.699c-2.366-6.008-3.579-12.344-3.579-18.912 0-28.627 23.289-51.916 51.916-51.916s51.915 23.289 51.915 51.916c0 6.563-1.211 12.895-3.573 18.899-2.555-.457-5.124-.869-7.702-1.252-3.954-8.99-12.941-15.285-23.375-15.285h-34.529c-10.438 0-19.428 6.3-23.38 15.295-2.576.381-5.14.8-7.693 1.255zm76.128 65.859-.883-.73c-15.592-12.885-38.225-12.885-53.816 0l-.883.73c.075-59.721-.177-57.055.209-58.969.007-.036.018-.071.024-.106 1.012-4.755 5.241-8.335 10.294-8.335h34.529c5.164 0 9.43 3.767 10.318 8.441.135.674.134-.533.208 58.969zm212.75 67.128-27.986 157.092c-5.636-1.066-11.474-1.162-17.307-.24-57.257 9.063-122.948 13.657-195.248 13.657s-137.99-4.595-195.248-13.657c-5.907-.935-11.739-.793-17.302.268l-27.991-157.12c-2.344-13.157 4.689-22.92 12.053-27.669s19.16-7.131 30.178.431l2.814 1.931s.001.001.001.001l56.061 38.469c12.234 8.395 28.766 7.657 40.204-1.795l68.704-56.777c.003-.003.006-.005.009-.008l13.164-10.878c10.055-8.309 24.65-8.309 34.705 0l13.164 10.878c.003.003.006.005.009.008l68.704 56.777c11.437 9.452 27.97 10.189 40.204 1.795l56.061-38.469s.001-.001.001-.001l2.814-1.931c11.019-7.561 22.815-5.181 30.178-.431 7.365 4.749 14.398 14.512 12.054 27.669zm-240.541 8.631c-11.889 0-22.898 6.209-30.998 17.482-7.562 10.524-11.727 24.389-11.727 39.04s4.165 28.516 11.727 39.04c8.1 11.273 19.109 17.481 30.998 17.481s22.898-6.208 30.998-17.481c7.562-10.524 11.727-24.388 11.727-39.04s-4.164-28.516-11.727-39.04c-8.1-11.273-19.109-17.482-30.998-17.482zm0 98.043c-15.028 0-27.725-19.014-27.725-41.521s12.696-41.522 27.725-41.522c15.028 0 27.725 19.015 27.725 41.522s-12.697 41.521-27.725 41.521zm-159.046-64.552c-19.114 0-34.086 19.546-34.086 44.499s14.972 44.499 34.086 44.499 34.086-19.546 34.086-44.499-14.973-44.499-34.086-44.499zm0 73.998c-10.346 0-19.086-13.509-19.086-29.499s8.74-29.499 19.086-29.499 19.086 13.509 19.086 29.499-8.741 29.499-19.086 29.499zm318.092-73.998c-19.114 0-34.086 19.546-34.086 44.499s14.972 44.499 34.086 44.499 34.086-19.546 34.086-44.499-14.972-44.499-34.086-44.499zm0 73.998c-10.346 0-19.086-13.509-19.086-29.499s8.74-29.499 19.086-29.499 19.086 13.509 19.086 29.499-8.74 29.499-19.086 29.499z"/></svg>