<svg viewBox="0 0 33.29 38" xmlns="http://www.w3.org/2000/svg"><path d="m33.29 27.22c0 1.57-.83 1.93-.83 1.93s-14.14 8.16-15.06 8.68a1.68 1.68 0 0 1 -1.52 0s-14.79-8.58-15.33-8.96a1.29 1.29 0 0 1 -.55-1s0-17 0-17.78 1-1.33 1-1.33l14.75-8.55a2 2 0 0 1 1.79 0s13.06 7.59 14.46 8.41a2.08 2.08 0 0 1 1.25 2.06s.05 15.07.04 16.54zm-5.9-17c-3-1.74-10.16-5.87-10.16-5.87a1.58 1.58 0 0 0 -1.41 0l-11.6 6.65s-.77.46-.76 1.08 0 13.92 0 13.92a1 1 0 0 0 .43.75c.43.3 12 7 12 7a1.3 1.3 0 0 0 1.19 0c.72-.4 11.82-6.79 11.82-6.79s.65-.28.65-1.51c0-.36 0-1.74 0-3.47l-13.02 7.9v-3a3 3 0 0 1 1-2.07l11.56-7a2.49 2.49 0 0 0 .55-1.46c0-1.27 0-2.37 0-3.07l-13.11 7.92v-3.2a2.17 2.17 0 0 1 .83-1.79z" fill="#409eff" fill-rule="evenodd"/></svg>