<svg enable-background="new 0 0 512 512" viewBox="0 0 512 512" xmlns="http://www.w3.org/2000/svg"><path d="m356.335 27.244c29.188 5.147 44.886 54.488 28.802 145.706-8.712 49.407-19.677 88.77-68.624 80.14-48.947-8.631-45.788-49.371-37.077-98.777 16.084-91.219 47.71-132.216 76.899-127.069z" fill="#fff4d1"/><path d="m345.798 86.998c15.117 2.665 21.515 38.045 9.686 105.128-6.407 36.334-13.622 65.433-38.972 60.963s-22.178-34.281-15.771-70.616c11.828-67.083 29.94-98.14 45.057-95.475z" fill="#f895c6"/><path d="m365.44 235.472c-74.949-26.889-55.732-149.583-34.278-201.254-20.804 15.384-40.233 54.915-51.726 120.094-8.712 49.406-11.87 90.147 37.077 98.777 24.091 4.249 38.978-3.136 48.927-17.617z" fill="#ac6a22" opacity=".15"/><path d="m163.541 27.244c-29.188 5.147-44.886 54.488-28.802 145.706 8.712 49.407 19.677 88.77 68.624 80.14s45.788-49.371 37.077-98.777c-16.084-91.219-47.711-132.216-76.899-127.069z" fill="#fff4d1"/><path d="m174.077 86.998c-15.117 2.665-21.514 38.045-9.686 105.128 6.407 36.334 13.622 65.433 38.972 60.963s22.178-34.281 15.771-70.616c-11.828-67.083-29.94-98.14-45.057-95.475z" fill="#f895c6"/><path d="m233.485 238.541c-75.403-39.029-85.678-164.183-72.65-210.682-27.436 7.668-41.675 56.735-26.096 145.091 8.712 49.407 19.677 88.77 68.624 80.14 13.876-2.447 23.56-7.476 30.122-14.549z" fill="#ac6a22" opacity=".15"/><path d="m409.765 240.304h-299.654v201.383c0 13.436 9.193 25.128 22.249 28.299 83.834 20.357 171.322 20.357 255.155 0 13.057-3.171 22.249-14.862 22.249-28.299v-201.383z" fill="#7e9edc"/><ellipse cx="185.65" cy="402.981" fill="#f895c6" rx="25.96" ry="20.673"/><ellipse cx="326.36" cy="402.981" fill="#f895c6" rx="25.96" ry="20.673"/><path d="m256 405.907c-10.387 0-18.808-8.421-18.808-18.808v-13.674c0-2.836 2.299-5.134 5.134-5.134h27.347c2.836 0 5.134 2.299 5.134 5.134v13.674c.001 10.388-8.42 18.808-18.807 18.808z" fill="#495059"/><path d="m185.492 296.513c21.938.47 45.774.657 74.446.657 62.872 0 102.503-.894 149.827-3.716v-53.15h-299.654v201.383c0 13.436 9.193 25.128 22.249 28.299 49.891 12.115 101.076 17.017 152.014 14.712-86.356-30.58-107.612-115.047-112.774-173.313-.718-8.11 5.752-15.046 13.892-14.872z" fill="#003a63" opacity=".15"/><path d="m110.111 325.379c48.634 3.096 86.791 4.053 149.827 4.053s101.192-.957 149.827-4.053v-85.075h-299.654z" fill="#f3bb62"/><path d="m171.601 311.385c-.718-8.11 5.751-15.046 13.891-14.872 21.938.47 45.774.657 74.446.657 62.872 0 102.503-.894 149.827-3.716v-53.15h-299.654v85.075c22.196 1.413 42.213 2.379 63.406 3.013-.807-5.855-1.433-11.546-1.916-17.007z" fill="#ac6a22" opacity=".2"/><path d="m259.938 260.734c-74.308 0-114.035-1.329-177.117-5.925-16.054-1.169-28.12-15.132-26.95-31.185 1.168-16.054 15.118-28.119 31.185-26.95 62.182 4.53 99.344 5.77 172.882 5.77s110.7-1.24 172.881-5.77c16.079-1.163 30.017 10.898 31.187 26.95 1.168 16.053-10.896 30.016-26.95 31.185-63.084 4.597-102.81 5.925-177.118 5.925z" fill="#7e9edc"/><path d="m479.315 377.647c-1.225 3.144-5.674 3.144-6.899 0-4.079-10.468-12.359-18.748-22.827-22.827-3.144-1.225-3.144-5.674 0-6.899 10.468-4.079 18.748-12.359 22.827-22.827 1.225-3.144 5.674-3.144 6.899 0 4.079 10.468 12.359 18.748 22.827 22.827 3.144 1.225 3.144 5.674 0 6.899-10.468 4.079-18.748 12.358-22.827 22.827z" fill="#f895c6"/><path d="m56.527 126.627c-1.872 4.805-8.671 4.805-10.543 0-6.233-15.996-18.885-28.648-34.881-34.881-4.804-1.872-4.804-8.671 0-10.543 15.996-6.233 28.648-18.885 34.881-34.881 1.872-4.804 8.67-4.804 10.543 0 6.233 15.996 18.885 28.648 34.881 34.881 4.804 1.872 4.804 8.671 0 10.543-15.996 6.233-28.648 18.885-34.881 34.881z" fill="#d76976"/><path d="m458.338 170.291c-1.347 3.458-6.24 3.458-7.587 0-4.486-11.512-13.591-20.617-25.103-25.103-3.458-1.347-3.458-6.24 0-7.587 11.512-4.486 20.617-13.591 25.103-25.103 1.347-3.458 6.24-3.458 7.587 0 4.486 11.512 13.591 20.617 25.103 25.103 3.458 1.347 3.458 6.24 0 7.587-11.512 4.486-20.617 13.591-25.103 25.103z" fill="#f3bb62"/><path d="m422.924 152.176c9.53 3.714 17.125 11.309 20.838 20.839 1.745 4.477 5.978 7.37 10.782 7.37 4.805 0 9.037-2.893 10.782-7.37 3.714-9.53 11.309-17.125 20.838-20.838 4.478-1.744 7.37-5.976 7.371-10.781 0-4.805-2.893-9.038-7.371-10.783-9.528-3.713-17.124-11.308-20.838-20.838-1.745-4.477-5.978-7.37-10.782-7.37-4.805 0-9.037 2.893-10.782 7.371-3.713 9.529-11.308 17.124-20.838 20.837-4.478 1.745-7.37 5.978-7.37 10.783.001 4.804 2.893 9.036 7.37 10.78zm31.62-30.242c4.606 8.111 11.35 14.854 19.461 19.46-8.112 4.607-14.854 11.349-19.461 19.46-4.606-8.111-11.349-14.854-19.46-19.46 8.112-4.607 14.854-11.348 19.46-19.46zm50.321 218.998c-8.489-3.308-15.255-10.073-18.563-18.561-1.688-4.334-5.784-7.135-10.436-7.136h-.001c-4.651 0-8.749 2.8-10.438 7.135-3.308 8.489-10.073 15.254-18.563 18.562-4.334 1.689-7.134 5.786-7.134 10.438s2.8 8.749 7.135 10.438c8.488 3.308 15.254 10.073 18.562 18.563 1.689 4.334 5.786 7.134 10.438 7.134h.001c4.652-.001 8.749-2.802 10.436-7.136 3.309-8.488 10.073-15.253 18.562-18.561 4.335-1.689 7.136-5.786 7.136-10.438s-2.801-8.749-7.135-10.438zm-29 26.786c-4.025-6.698-9.651-12.323-16.349-16.348 6.697-4.025 12.324-9.651 16.349-16.348 4.024 6.696 9.65 12.323 16.348 16.348-6.697 4.025-12.323 9.651-16.348 16.348zm-193.557 19.382v-13.674c0-6.967-5.668-12.634-12.634-12.634h-27.348c-6.966 0-12.634 5.668-12.634 12.634v13.674c0 14.506 11.802 26.308 26.308 26.308 14.506-.001 26.308-11.803 26.308-26.308zm-37.616 0v-11.309h22.615v11.308c0 6.235-5.072 11.308-11.308 11.308-6.234 0-11.307-5.073-11.307-11.307zm-47.207-8.526v-11.143c0-4.142-3.358-7.5-7.5-7.5s-7.5 3.358-7.5 7.5v11.142c0 4.142 3.358 7.5 7.5 7.5 4.142.001 7.5-3.357 7.5-7.499zm132.031 0v-11.143c0-4.142-3.357-7.5-7.5-7.5s-7.5 3.358-7.5 7.5v11.142c0 4.142 3.357 7.5 7.5 7.5s7.5-3.357 7.5-7.499zm-266.001-249.225c5.456-14 16.615-25.159 30.616-30.615 5.09-1.984 8.38-6.795 8.38-12.259.001-5.464-3.288-10.276-8.38-12.261-14.001-5.455-25.16-16.613-30.616-30.615-1.984-5.091-6.796-8.38-12.259-8.38-5.464 0-10.276 3.289-12.26 8.38-5.456 14.002-16.615 25.161-30.616 30.616-5.091 1.984-8.38 6.797-8.38 12.261 0 5.463 3.29 10.275 8.38 12.259 14.001 5.456 25.16 16.615 30.616 30.615 1.984 5.091 6.796 8.381 12.26 8.381 5.463-.001 10.275-3.29 12.259-8.382zm-45.668-42.874c14.692-6.837 26.571-18.716 33.409-33.409 6.838 14.693 18.717 26.572 33.41 33.409-14.693 6.837-26.572 18.716-33.41 33.409-6.838-14.693-18.716-26.572-33.409-33.409zm453.639 136.605c-1.469-20.142-19.043-35.35-39.212-33.886-15.642 1.14-29.695 2.07-43.146 2.824 1.083-5.134 2.185-10.909 3.394-17.766 7.748-43.938 8.613-81.318 2.503-108.101-6.086-26.675-19.364-43.116-37.388-46.295-18.023-3.173-36.125 7.73-50.967 30.715-14.902 23.078-26.874 58.5-34.621 102.438-2.461 13.952-4.721 28.517-5.162 41.931-2.282.003-4.596.004-6.95.004s-4.668-.001-6.949-.004c-.441-13.413-2.702-27.978-5.163-41.931-7.748-43.938-19.719-79.36-34.621-102.438-14.842-22.984-32.941-33.892-50.966-30.715-18.024 3.178-31.302 19.619-37.388 46.295-6.11 26.782-5.245 64.163 2.502 108.101 1.209 6.856 2.311 12.631 3.394 17.766-13.451-.755-27.504-1.685-43.147-2.824-20.164-1.464-37.743 13.735-39.21 33.886-.711 9.762 2.421 19.217 8.822 26.623 6.4 7.406 15.301 11.876 25.063 12.587 7.046.513 13.79.984 20.335 1.419v119.767c0 4.142 3.358 7.5 7.5 7.5s7.5-3.358 7.5-7.5v-50.119c44.159 2.66 81.372 3.575 142.327 3.575 60.954 0 98.167-.915 142.327-3.575v108.33c0 10.009-6.793 18.649-16.518 21.011-82.305 19.984-169.312 19.985-251.616 0-9.726-2.362-16.519-11.002-16.519-21.011v-22.922c0-4.142-3.358-7.5-7.5-7.5s-7.5 3.358-7.5 7.5v22.922c0 16.953 11.506 31.587 27.98 35.587 42.31 10.274 85.828 15.411 129.347 15.411s87.038-5.137 129.348-15.411c16.474-4 27.979-18.634 27.979-35.587v-177.978c6.546-.435 13.289-.905 20.336-1.419 20.151-1.468 35.352-19.057 33.886-39.21zm-184.665-67.466c7.403-41.984 18.624-75.494 32.45-96.905 6.58-10.188 19.985-26.861 35.761-24.08 15.788 2.784 22.671 23.035 25.369 34.858 5.669 24.849 4.752 60.175-2.65 102.159-1.501 8.507-2.824 15.276-4.147 21.175-3.579.17-7.145.327-10.711.473 4.293-24.375 6.383-45.547 6.214-62.926-.04-4.117-3.391-7.427-7.498-7.427-.025 0-.05 0-.075.001-4.142.04-7.467 3.431-7.427 7.573.161 16.492-1.86 36.783-6.009 60.307-.18 1.019-.362 2.023-.543 3.029-13.025.413-26.477.69-41.265.861.506-3.224 1.108-6.804 1.836-10.937 5.447-30.893 12.578-55.736 20.621-71.846 7.362-14.745 13.368-17.961 15.749-17.545 1.749.308 3.643 2.599 5.2 6.284 1.611 3.816 6.009 5.604 9.827 3.992 3.815-1.611 5.603-6.011 3.991-9.827-4.648-11.008-11.491-14.353-16.413-15.221-14.43-2.541-25.239 12.527-31.775 25.618-8.68 17.385-16.277 43.646-21.972 75.942-.934 5.296-1.667 9.727-2.262 13.679-3 .02-6.071.036-9.197.049.452-12.346 2.597-26.074 4.926-39.286zm-147.346-86.126c2.697-11.824 9.58-32.075 25.368-34.858 15.792-2.787 29.182 13.892 35.761 24.08 13.826 21.411 25.047 54.92 32.45 96.905 2.33 13.212 4.475 26.941 4.927 39.286-3.126-.013-6.197-.029-9.197-.049-.595-3.955-1.329-8.385-2.263-13.679-5.695-32.296-13.293-58.557-21.972-75.941-6.535-13.09-17.351-28.161-31.774-25.618-14.422 2.543-19.433 20.404-21.097 34.94-2.207 19.278-.372 46.505 5.304 78.742-3.566-.146-7.132-.303-10.711-.473-1.323-5.9-2.646-12.668-4.146-21.174-7.403-41.985-8.319-77.312-2.65-102.161zm74.111 125.225c-14.788-.171-28.24-.448-41.265-.861-.182-1.006-.364-2.009-.543-3.028-5.447-30.893-7.244-56.677-5.196-74.565 1.874-16.373 6.412-21.454 8.798-21.874 2.386-.422 8.389 2.801 15.749 17.545 8.042 16.109 15.173 40.954 20.62 71.846.728 4.132 1.33 7.712 1.837 10.937zm188.679 123.616c-44.228 2.681-81.298 3.603-142.327 3.603s-98.099-.921-142.327-3.603v-53.67c45.117 2.716 82.584 3.574 142.327 3.574 59.742 0 97.209-.859 142.327-3.574zm34.246-70.999c-62.87 4.58-102.476 5.904-176.573 5.904-74.099 0-113.704-1.324-176.572-5.904-5.766-.42-11.024-3.061-14.804-7.435s-5.631-9.959-5.211-15.726c.828-11.371 10.347-20.073 21.574-20.073.525 0 1.054.019 1.586.058 19.598 1.428 36.718 2.53 53.269 3.37.029.002.059.003.088.004 26.324 1.335 51.222 2.008 82.366 2.274.004 0 .008.001.013.001h.007c11.569.099 23.996.142 37.684.142 13.689 0 26.116-.043 37.686-.142h.007c.004 0 .008-.001.013-.001 31.155-.266 56.059-.939 82.394-2.275.014-.001.028-.001.042-.002 16.555-.84 33.679-1.942 53.282-3.37 11.921-.87 22.298 8.118 23.165 20.015.865 11.903-8.114 22.293-20.016 23.16z"/></svg>