<svg enable-background="new 0 0 54 53.9" viewBox="0 0 54 53.9" xmlns="http://www.w3.org/2000/svg" xmlns:xlink="http://www.w3.org/1999/xlink"><linearGradient id="a" gradientTransform="matrix(1 0 0 -1 0 51.8639)" gradientUnits="userSpaceOnUse" x1="-1.3994" x2="54.1006" y1="41.1615" y2="9.1615"><stop offset="0" stop-color="#4b93b0"/><stop offset="1" stop-color="#50b09f"/></linearGradient><path clip-rule="evenodd" d="m27 10.9c-7.2 0-11.7 3.6-13.5 10.8 2.7-3.6 5.9-4.9 9.5-4 2.1.5 3.5 2 5.1 3.7 2.6 2.7 5.7 5.8 12.4 5.8 7.2 0 11.7-3.6 13.5-10.8-2.7 3.6-5.8 5-9.5 4.1-2.1-.5-3.5-2-5.1-3.7-2.6-2.8-5.7-5.9-12.4-5.9zm-13.5 16.2c-7.2 0-11.7 3.6-13.5 10.8 2.7-3.6 5.9-5 9.4-4 2.1.5 3.5 2 5.1 3.7 2.6 2.7 5.7 5.8 12.4 5.8 7.2 0 11.7-3.6 13.5-10.8-2.7 3.6-5.8 5-9.5 4.1-2.1-.5-3.5-2-5.1-3.7-2.5-2.8-5.6-5.9-12.3-5.9z" fill="url(#a)" fill-rule="evenodd"/></svg>